# File created by Blade
# Date/Time:  Wed Apr 08 17:12:22 2015
#---------------------------------------------------------
:version 1.10
:name HOM
:units
  mass 1.0
  length 1.000000
  angle deg
:documentation
     Acclaim Skeleton File
:root
   axis xyz
   order TX TY TZ RX RY RZ
   position 0.000000 0.000000 0.000000
   orientation 0 0 0
:bonedata
   begin
      id 1
      name Spine_dum
      direction 0.000000 1.000000 0.000000
      length 5.893853
      axis 0.0 0.0 0.0 xyz
   end
   begin
      id 2
      name LeftUpLeg_dum
      direction 1.000000 0.000000 0.000000
      length 3.697939
      axis 0.0 0.0 0.0 xyz
   end
   begin
      id 3
      name RightUpLeg_dum
      direction -1.000000 0.000000 0.000000
      length 3.697939
      axis 0.0 0.0 0.0 xyz
   end
   begin
      id 4
      name Spine
      direction 0.000000 1.000000 0.000000
      length 0.000000
      axis 0.0 0.0 0.0 xyz
      dof rx ry rz
   end
   begin
      id 5
      name Spine_dum1
      direction 0.000000 1.000000 0.000000
      length 16.447146
      axis 0.0 0.0 0.0 xyz
   end
   begin
      id 6
      name Spine_dum2
      direction 0.000000 1.000000 0.000000
      length 10.900383
      axis 0.0 0.0 0.0 xyz
   end
   begin
      id 7
      name Spine_dum3
      direction 0.000000 1.000000 0.000000
      length 10.900383
      axis 0.0 0.0 0.0 xyz
   end
   begin
      id 8
      name Head
      direction 0.000000 1.000000 0.000000
      length 4.527550
      axis 0.0 0.0 0.0 xyz
      dof rx ry rz
   end
   begin
      id 9
      name LeftShoulder
      direction 1.000000 0.000000 0.000000
      length 8.219464
      axis 0.0 0.0 -90.0 xyz
      dof rx ry rz
   end
   begin
      id 10
      name LeftArm
      direction 1.000000 0.000000 0.000000
      length 11.094937
      axis 0.0 0.0 -90.0 xyz
      dof rx ry rz
   end
   begin
      id 11
      name LeftForeArm
      direction 1.000000 0.000000 0.000000
      length 9.103875
      axis 0.0 0.0 -90.0 xyz
      dof ry rz rx
   end
   begin
      id 12
      name LeftHand
      direction 0.000000 0.000000 0.000000
      length 0.000000
      axis 0.0 0.0 -90.0 xyz
      dof rx ry rz
   end
   begin
      id 13
      name LeftHand_dum1
      direction 0.000000 0.000000 0.000000
      length 0.000000
      axis 0.0 0.0 -90.0 xyz
   end
   begin
      id 14
      name LeftHand_dum2
      direction 1.000000 0.000000 0.000000
      length 3.937000
      axis 0.0 0.0 -90.0 xyz
   end
   begin
      id 15
      name LeftHandThumb1
      direction 0.000000 0.000000 1.000000
      length 3.937000
      axis 0.0 0.0 -90.0 xyz
      dof rx rz ry
   end
   begin
      id 16
      name RightShoulder
      direction -1.000000 0.000000 0.000000
      length 8.219464
      axis 0.0 0.0 90.0 xyz
      dof rx ry rz
   end
   begin
      id 17
      name RightArm
      direction -1.000000 0.000000 0.000000
      length 11.094937
      axis 0.0 0.0 90.0 xyz
      dof rx ry rz
   end
   begin
      id 18
      name RightForeArm
      direction -1.000000 0.000000 0.000000
      length 9.103875
      axis 0.0 0.0 90.0 xyz
      dof ry rz rx
   end
   begin
      id 19
      name RightHand
      direction 0.000000 0.000000 0.000000
      length 0.000000
      axis 0.0 0.0 90.0 xyz
      dof rx ry rz
   end
   begin
      id 20
      name RightHand_dum1
      direction 0.000000 0.000000 0.000000
      length 0.000000
      axis 0.0 0.0 90.0 xyz
   end
   begin
      id 21
      name RightHand_dum2
      direction -1.000000 0.000000 0.000000
      length 3.937000
      axis 0.0 0.0 90.0 xyz
   end
   begin
      id 22
      name RightHandThumb1
      direction 0.000000 0.000000 1.000000
      length 3.937000
      axis 0.0 0.0 90.0 xyz
      dof rx rz ry
   end
   begin
      id 23
      name LeftUpLeg
      direction 0.000000 -1.000000 0.000000
      length 16.181467
      axis 0.0 0.0 0.0 xyz
      dof rx ry rz
   end
   begin
      id 24
      name LeftLeg
      direction 0.000000 -1.000000 0.000000
      length 16.501392
      axis 0.0 0.0 0.0 xyz
      dof rx ry rz
   end
   begin
      id 25
      name LeftFoot
      direction 0.000000 -0.258819 0.965926
      length 6.408245
      axis 15.0 0.0 0.0 xyz
      dof rx ry rz
   end
   begin
      id 26
      name LeftToeBase
      direction 0.000000 0.000000 1.000000
      length 2.952750
      axis 0.0 0.0 0.0 xyz
      dof rx ry rz
   end
   begin
      id 27
      name RightUpLeg
      direction 0.000000 -1.000000 0.000000
      length 16.181467
      axis 0.0 0.0 0.0 xyz
      dof rx ry rz
   end
   begin
      id 28
      name RightLeg
      direction 0.000000 -1.000000 0.000000
      length 16.501392
      axis 0.0 0.0 0.0 xyz
      dof rx ry rz
   end
   begin
      id 29
      name RightFoot
      direction 0.000000 -0.258819 0.965926
      length 6.408245
      axis 15.0 0.0 0.0 xyz
      dof rx ry rz
   end
   begin
      id 30
      name RightToeBase
      direction 0.000000 0.000000 1.000000
      length 2.952750
      axis 0.0 0.0 0.0 xyz
      dof rx ry rz
   end
:hierarchy
   begin
      root Spine_dum LeftUpLeg_dum RightUpLeg_dum
      Spine_dum Spine
      LeftUpLeg_dum LeftUpLeg
      RightUpLeg_dum RightUpLeg
      Spine Spine_dum1 Spine_dum2 Spine_dum3
      Spine_dum1 Head
      Spine_dum2 LeftShoulder
      Spine_dum3 RightShoulder
      LeftShoulder LeftArm
      LeftArm LeftForeArm
      LeftForeArm LeftHand
      LeftHand LeftHand_dum1 LeftHand_dum2
      LeftHand_dum1 LeftHandThumb1
      RightShoulder RightArm
      RightArm RightForeArm
      RightForeArm RightHand
      RightHand RightHand_dum1 RightHand_dum2
      RightHand_dum1 RightHandThumb1
      LeftUpLeg LeftLeg
      LeftLeg LeftFoot
      LeftFoot LeftToeBase
      RightUpLeg RightLeg
      RightLeg RightFoot
      RightFoot RightToeBase
   end

# File created by Blade
# Date/Time:  Wed Apr 08 17:12:12 2015
# Frame Rate: 120.000 fps
#------------------------------------------------------
:FULLY-SPECIFIED
:DEGREES
384
root 2.766645 38.108334 3.080629 40.215729 -17.911488 -25.638085
Spine -28.098257 0.502776 1.437397
Head 15.236922 23.108215 18.599385
LeftShoulder -8.380475 26.291675 10.609288
LeftArm 25.371913 24.431292 -72.888727
LeftForeArm 21.357093 -0.000000 25.474113
LeftHand -15.368852 -0.000000 -5.142696
LeftHandThumb1 -26.253704 0.000000 33.147579
RightShoulder -36.323670 -59.567681 21.521098
RightArm 50.986781 -14.110147 43.309810
RightForeArm 6.899321 -0.000000 3.646561
RightHand -6.909692 -0.000000 15.463407
RightHandThumb1 -24.326973 -0.000000 -32.862282
LeftUpLeg -38.011772 19.269656 14.940919
LeftLeg 16.326584 -0.000000 -0.000000
LeftFoot -8.924753 -5.943847 -22.327935
LeftToeBase 20.434662 -0.000000 -0.000000
RightUpLeg -122.977857 -0.408192 21.923980
RightLeg 124.953543 -0.000000 -0.000000
RightFoot 9.969164 5.593915 22.657175
RightToeBase 4.044522 -0.000000 -0.000000
385
root 2.727429 38.040184 3.118917 38.183571 -17.998369 -25.234708
Spine -25.810188 0.439424 1.118618
Head 14.824537 23.163473 18.653566
LeftShoulder -8.177127 25.877309 10.703589
LeftArm 25.501627 24.017886 -72.858353
LeftForeArm 21.275896 -0.000000 25.572200
LeftHand -15.391508 -0.000000 -4.946642
LeftHandThumb1 -26.253704 0.000000 33.147579
RightShoulder -36.064635 -59.345192 21.661906
RightArm 50.794697 -14.056696 43.588445
RightForeArm 6.734564 0.000000 3.599882
RightHand -6.973007 -0.000000 15.448059
RightHandThumb1 -24.326973 -0.000000 -32.862282
LeftUpLeg -36.072287 19.034433 15.015716
LeftLeg 16.319187 -0.000000 -0.000000
LeftFoot -9.109874 -6.529694 -22.223902
LeftToeBase 20.426083 -0.000000 -0.000000
RightUpLeg -121.461738 -0.558275 21.264178
RightLeg 125.450871 -0.000000 -0.000000
RightFoot 9.961486 5.557441 22.560198
RightToeBase 3.981904 -0.000000 -0.000000
386
root 2.697962 37.990255 3.149552 36.642494 -17.875541 -24.900745
Spine -24.103719 0.307151 1.059079
Head 14.534808 23.236220 18.615599
LeftShoulder -8.020449 25.580226 10.740504
LeftArm 25.644558 23.685512 -72.814870
LeftForeArm 21.188601 -0.000000 25.711337
LeftHand -15.414815 -0.000000 -4.745833
LeftHandThumb1 -26.253704 0.000000 33.147579
RightShoulder -36.004807 -59.218309 21.839158
RightArm 50.734413 -14.143365 43.654755
RightForeArm 6.765255 -0.000000 3.538354
RightHand -7.032802 0.000000 15.499544
RightHandThumb1 -24.326973 -0.000000 -32.862282
LeftUpLeg -34.678122 18.687752 15.151988
LeftLeg 16.326353 -0.000000 -0.000000
LeftFoot -9.236713 -6.938337 -22.167642
LeftToeBase 20.443839 -0.000000 -0.000000
RightUpLeg -120.328965 -0.645662 20.796108
RightLeg 125.870043 -0.000000 -0.000000
RightFoot 9.995569 5.592732 22.537210
RightToeBase 3.894383 -0.000000 -0.000000
387
root 2.675867 37.951958 3.172646 35.479189 -17.615132 -24.596601
Spine -22.856001 0.088348 1.148636
Head 14.354407 23.293417 18.554846
LeftShoulder -7.879679 25.348164 10.798961
LeftArm 25.766160 23.439509 -72.808109
LeftForeArm 21.116570 -0.000000 25.871485
LeftHand -15.543797 -0.000000 -4.696474
LeftHandThumb1 -26.253704 0.000000 33.147579
RightShoulder -35.940664 -59.158900 21.925567
RightArm 50.602323 -14.243140 43.792425
RightForeArm 6.687493 0.000000 3.547854
RightHand -6.984321 -0.000000 15.493032
RightHandThumb1 -24.326973 -0.000000 -32.862282
LeftUpLeg -33.729836 18.289494 15.274039
LeftLeg 16.367679 -0.000000 -0.000000
LeftFoot -9.325415 -7.240162 -22.111152
LeftToeBase 20.467748 -0.000000 -0.000000
RightUpLeg -119.521480 -0.666139 20.422965
RightLeg 126.208271 -0.000000 -0.000000
RightFoot 10.081943 5.697667 22.425413
RightToeBase 3.882650 -0.000000 -0.000000
388
root 2.656824 37.920926 3.193442 34.524004 -17.320474 -24.307556
Spine -21.871665 -0.152279 1.272558
Head 14.236489 23.348264 18.510515
LeftShoulder -7.759582 25.165739 10.870791
LeftArm 25.873228 23.236144 -72.808852
LeftForeArm 21.051835 -0.000000 26.059775
LeftHand -15.652492 -0.000000 -4.505712
LeftHandThumb1 -26.253704 0.000000 33.147579
RightShoulder -36.024804 -59.188569 22.134802
RightArm 50.565769 -14.346675 43.858758
RightForeArm 6.625335 -0.000000 3.541143
RightHand -6.998747 -0.000000 15.460921
RightHandThumb1 -24.326973 -0.000000 -32.862282
LeftUpLeg -32.998004 17.925907 15.341232
LeftLeg 16.393521 -0.000000 -0.000000
LeftFoot -9.349155 -7.506339 -22.007938
LeftToeBase 20.338193 -0.000000 -0.000000
RightUpLeg -118.895660 -0.585859 20.100400
RightLeg 126.515182 -0.000000 -0.000000
RightFoot 10.213956 5.707933 22.435547
RightToeBase 3.602311 -0.000000 -0.000000
389
root 2.650360 37.902414 3.204067 34.017085 -16.967477 -24.093339
Spine -21.418996 -0.390671 1.559919
Head 14.261081 23.359406 18.378511
LeftShoulder -7.676620 25.106414 10.879518
LeftArm 26.053582 23.163708 -72.730405
LeftForeArm 20.897681 -0.000000 26.220279
LeftHand -15.717726 -0.000000 -4.207818
LeftHandThumb1 -26.253704 0.000000 33.147579
RightShoulder -36.120612 -59.257289 22.245792
RightArm 50.465026 -14.474147 43.965979
RightForeArm 6.510086 -0.000000 3.585569
RightHand -6.976038 -0.000000 15.424684
RightHandThumb1 -24.326973 -0.000000 -32.862282
LeftUpLeg -32.710392 17.538381 15.408102
LeftLeg 16.412035 -0.000000 -0.000000
LeftFoot -9.340477 -7.632211 -21.966156
LeftToeBase 20.276591 -0.000000 -0.000000
RightUpLeg -118.634194 -0.377821 19.916387
RightLeg 126.735527 -0.000000 -0.000000
RightFoot 10.284838 5.730828 22.359410
RightToeBase 3.563221 -0.000000 -0.000000
390
root 2.677388 37.949950 3.150535 35.853481 -15.928555 -24.073994
Spine -23.800879 -0.970912 2.664741
Head 14.876308 23.341085 18.071288
LeftShoulder -7.819936 25.509113 10.766220
LeftArm 26.215213 23.389868 -72.674521
LeftForeArm 20.788413 -0.000000 26.472572
LeftHand -15.845454 -0.000000 -4.212013
LeftHandThumb1 -26.253704 0.000000 33.147579
RightShoulder -36.772128 -59.672604 22.410867
RightArm 50.385752 -14.865997 43.862240
RightForeArm 6.520645 0.000000 3.735462
RightHand -6.963456 -0.000000 15.445153
RightHandThumb1 -24.326973 -0.000000 -32.862282
LeftUpLeg -35.160843 17.104269 15.359445
LeftLeg 16.634742 -0.000000 -0.000000
LeftFoot -8.952879 -7.363499 -21.971003
LeftToeBase 20.147402 -0.000000 -0.000000
RightUpLeg -120.414141 0.172726 20.276325
RightLeg 126.601177 -0.000000 -0.000000
RightFoot 10.415743 5.740123 22.341558
RightToeBase 3.319094 -0.000000 -0.000000
